<svg width="563" height="230" xmlns="http://www.w3.org/2000/svg" xmlns:xlink="http://www.w3.org/1999/xlink" overflow="hidden"><defs><clipPath id="clip0"><rect x="310" y="265" width="563" height="230"/></clipPath></defs><g clip-path="url(#clip0)" transform="translate(-310 -265)"><path d="M839 468 757 405.624 839 345Z" fill="#00B0F0" fill-rule="evenodd"/><path d="M755.5 405.5 872.284 494.22" stroke="#000000" stroke-width="0.666667" stroke-miterlimit="8" fill="none" fill-rule="evenodd"/><path d="M758.838 401.629 829.015 456.038 825.338 460.78 755.162 406.371ZM830.32 449.458 839.031 467.6 819.291 463.684Z" fill="#2F5597"/><path d="M393 430 313 402.701 393 345Z" fill="#00B0F0" fill-rule="evenodd"/><path d="M607 430 527 402.701 607 345Z" fill="#00B0F0" fill-rule="evenodd"/><path d="M524.5 404.933 524.5 266.5" stroke="#000000" stroke-width="0.666667" stroke-miterlimit="8" fill="none" fill-rule="evenodd"/><path d="M0 0 114.804 83.8763" stroke="#000000" stroke-width="0.666667" stroke-miterlimit="8" fill="none" fill-rule="evenodd" transform="matrix(1 0 0 -1 526.5 405.376)"/><path d="M526.5 404.5 641.304 493.82" stroke="#000000" stroke-width="0.666667" stroke-miterlimit="8" fill="none" fill-rule="evenodd"/><path d="M1.76913-2.42285 70.8096 47.9895 67.2714 52.8352-1.76913 2.42285ZM71.925 41.3746 81.1547 59.2579 61.3103 55.9117Z" fill="#2F5597" transform="matrix(1 0 0 -1 526 404.258)"/><path d="M526.911 401.142 593.773 422.439 591.952 428.156 525.089 406.858ZM592.735 415.811 607.155 429.85 587.272 432.962Z" fill="#2F5597"/><path d="M2.71532-1.27554 32.9563 63.1002 27.5256 65.6513-2.71532 1.27554ZM37.1114 57.8338 36.6187 77.9523 20.8194 65.487Z" fill="#2F5597" transform="matrix(1 0 0 -1 526 403.952)"/><path d="M311.5 404.933 311.5 266.5" stroke="#000000" stroke-width="0.666667" stroke-miterlimit="8" fill="none" fill-rule="evenodd"/><path d="M0 0 114.804 83.8763" stroke="#000000" stroke-width="0.666667" stroke-miterlimit="8" fill="none" fill-rule="evenodd" transform="matrix(1 0 0 -1 313.5 404.376)"/><path d="M313.5 404.5 428.304 493.82" stroke="#000000" stroke-width="0.666667" stroke-miterlimit="8" fill="none" fill-rule="evenodd"/><path d="M1.78069-2.41436 69.7606 47.7234 66.1992 52.5522-1.78069 2.41436ZM70.9076 41.114 80.0518 59.0413 60.2235 55.6002Z" fill="#2F5597" transform="matrix(1 0 0 -1 313 404.041)"/><path d="M0.0474593-2.99962 65.1013-1.97036 65.0064 4.02889-0.0474593 2.99962ZM62.1966-8.01707 80.052 1.26656 61.9118 9.98068Z" fill="#2F5597" transform="matrix(1 0 0 -1 313 404.267)"/><path d="M563.5 326.5 563.5 405.172" stroke="#000000" stroke-width="0.666667" stroke-miterlimit="8" fill="none" fill-rule="evenodd"/><path d="M524.5 404.5 563.098 405.471" stroke="#000000" stroke-width="0.666667" stroke-miterlimit="8" fill="none" fill-rule="evenodd"/><path d="M555.5 398.5 555.5 405.619" stroke="#000000" stroke-width="0.666667" stroke-miterlimit="8" fill="none" fill-rule="evenodd"/><path d="M555.5 398.5 563.1 398.5" stroke="#000000" stroke-width="0.666667" stroke-miterlimit="8" fill="none" fill-rule="evenodd"/><path d="M312.91 401.142 379.773 422.439 377.952 428.156 311.09 406.858ZM378.735 415.811 393.155 429.85 373.272 432.962Z" fill="#2F5597"/><path d="M755.5 404.933 755.5 266.5" stroke="#000000" stroke-width="0.666667" stroke-miterlimit="8" fill="none" fill-rule="evenodd"/><path d="M0 0 114.804 83.8763" stroke="#000000" stroke-width="0.666667" stroke-miterlimit="8" fill="none" fill-rule="evenodd" transform="matrix(1 0 0 -1 757.5 405.376)"/><path d="M1.75674-2.43184 71.6286 48.0428 68.1151 52.9065-1.75674 2.43184ZM72.7102 41.4224 82.0311 59.2584 62.1698 56.0135Z" fill="#2F5597" transform="matrix(1 0 0 -1 757 404.258)"/><path d="M752 403.914 752 338 758 338 758 403.914ZM746 341 755 323 764 341Z" fill="#2F5597"/><path d="M765.5 386.5 765.5 398.5" stroke="#000000" stroke-width="0.666667" stroke-miterlimit="8" fill="none" fill-rule="evenodd"/><path d="M0 0 9.52157 7" stroke="#000000" stroke-width="0.666667" stroke-miterlimit="8" fill="none" fill-rule="evenodd" transform="matrix(1 0 0 -1 755.5 393.5)"/><path d="M0 0 9.52157 7" stroke="#000000" stroke-width="0.666667" stroke-miterlimit="8" fill="none" fill-rule="evenodd" transform="matrix(1 0 0 -1 756.5 405.5)"/><path d="M756.5 393.5 756.5 405.5" stroke="#000000" stroke-width="0.666667" stroke-miterlimit="8" fill="none" fill-rule="evenodd"/><path d="M757.5 406.5 757.5 406.5" stroke="#000000" stroke-width="0.666667" stroke-miterlimit="8" fill="none" fill-rule="evenodd"/><path d="M0 0 9.52157 7" stroke="#000000" stroke-width="0.666667" stroke-miterlimit="8" fill="none" fill-rule="evenodd" transform="matrix(1 0 0 -1 765.5 412.5)"/><path d="M757.5 406.5 757.5 406.5" stroke="#000000" stroke-width="0.666667" stroke-miterlimit="8" fill="none" fill-rule="evenodd"/><path d="M766.5 398.5 775.428 405.5" stroke="#000000" stroke-width="0.666667" stroke-miterlimit="8" fill="none" fill-rule="evenodd"/><path d="M756.5 405.5 765.428 412.5" stroke="#000000" stroke-width="0.666667" stroke-miterlimit="8" fill="none" fill-rule="evenodd"/></g></svg>