<svg width="332" height="230" xmlns="http://www.w3.org/2000/svg" xmlns:xlink="http://www.w3.org/1999/xlink" overflow="hidden"><defs><clipPath id="clip0"><rect x="310" y="265" width="332" height="230"/></clipPath></defs><g clip-path="url(#clip0)" transform="translate(-310 -265)"><path d="M607 464 527 402.291 607 345Z" fill="#00B0F0" fill-rule="evenodd"/><path d="M524.5 404.933 524.5 266.5" stroke="#000000" stroke-width="0.666667" stroke-miterlimit="8" fill="none" fill-rule="evenodd"/><path d="M0 0 114.804 83.8763" stroke="#000000" stroke-width="0.666667" stroke-miterlimit="8" fill="none" fill-rule="evenodd" transform="matrix(1 0 0 -1 526.5 405.376)"/><path d="M526.5 404.5 641.304 493.82" stroke="#000000" stroke-width="0.666667" stroke-miterlimit="8" fill="none" fill-rule="evenodd"/><path d="M1.76492-2.42592 82.6662 56.4319 79.1364 61.2837-1.76492 2.42592ZM83.7701 49.8152 93.0309 67.6824 73.1806 64.3707Z" fill="#2F5597" transform="matrix(1 0 0 -1 526 404.682)"/><path d="M527.79 401.592 606.803 460.326 603.224 465.141 524.21 406.408ZM607.975 453.721 617.052 471.682 597.236 468.167Z" fill="#2F5597"/><path d="M2.71532-1.27554 32.9563 63.1002 27.5256 65.6513-2.71532 1.27554ZM37.1114 57.8338 36.6187 77.9523 20.8194 65.487Z" fill="#2F5597" transform="matrix(1 0 0 -1 526 403.952)"/><path d="M394 464 314 402.291 394 345Z" fill="#00B0F0" fill-rule="evenodd"/><path d="M311.5 404.933 311.5 266.5" stroke="#000000" stroke-width="0.666667" stroke-miterlimit="8" fill="none" fill-rule="evenodd"/><path d="M0 0 114.804 83.8763" stroke="#000000" stroke-width="0.666667" stroke-miterlimit="8" fill="none" fill-rule="evenodd" transform="matrix(1 0 0 -1 313.5 404.376)"/><path d="M313.5 404.5 428.304 493.82" stroke="#000000" stroke-width="0.666667" stroke-miterlimit="8" fill="none" fill-rule="evenodd"/><path d="M1.76492-2.42592 82.6662 56.4319 79.1364 61.2837-1.76492 2.42592ZM83.7701 49.8152 93.0309 67.6824 73.1806 64.3707Z" fill="#2F5597" transform="matrix(1 0 0 -1 313 404.682)"/><path d="M314.79 401.592 393.803 460.326 390.224 465.141 311.21 406.408ZM394.975 453.721 404.052 471.682 384.236 468.167Z" fill="#2F5597"/><path d="M0.0735767-2.9991 66.233-1.37601 66.0859 4.62218-0.0735767 2.9991ZM63.3811-7.44778 81.155 1.99097 62.9396 10.5468Z" fill="#2F5597" transform="matrix(1 0 0 -1 313 403.991)"/><path d="M563.5 326.5 563.5 405.172" stroke="#000000" stroke-width="0.666667" stroke-miterlimit="8" fill="none" fill-rule="evenodd"/><path d="M524.5 404.5 563.098 405.471" stroke="#000000" stroke-width="0.666667" stroke-miterlimit="8" fill="none" fill-rule="evenodd"/><path d="M555.5 398.5 555.5 405.619" stroke="#000000" stroke-width="0.666667" stroke-miterlimit="8" fill="none" fill-rule="evenodd"/><path d="M555.5 398.5 563.1 398.5" stroke="#000000" stroke-width="0.666667" stroke-miterlimit="8" fill="none" fill-rule="evenodd"/></g></svg>