<svg width="599" height="288" xmlns="http://www.w3.org/2000/svg" xmlns:xlink="http://www.w3.org/1999/xlink" overflow="hidden"><defs><clipPath id="clip0"><rect x="294" y="226" width="599" height="288"/></clipPath></defs><g clip-path="url(#clip0)" transform="translate(-294 -226)"><path d="M839 468 757 405.624 839 345Z" fill="#00B0F0" fill-rule="evenodd"/><path d="M755.5 405.5 872.284 494.22" stroke="#000000" stroke-width="0.666667" stroke-miterlimit="8" fill="none" fill-rule="evenodd"/><path d="M756.774 404.581 828.446 457.139 824.897 461.978 753.226 409.419ZM829.575 450.527 838.768 468.429 818.93 465.042Z" fill="#2F5597"/><path d="M393 430 313 402.701 393 345Z" fill="#00B0F0" fill-rule="evenodd"/><path d="M607 430 527 402.701 607 345Z" fill="#00B0F0" fill-rule="evenodd"/><path d="M524.5 404.933 524.5 266.5" stroke="#000000" stroke-width="0.666667" stroke-miterlimit="8" fill="none" fill-rule="evenodd"/><path d="M0 0 114.804 83.8763" stroke="#000000" stroke-width="0.666667" stroke-miterlimit="8" fill="none" fill-rule="evenodd" transform="matrix(1 0 0 -1 526.5 405.376)"/><path d="M525.5 405.5 641.896 494.22" stroke="#000000" stroke-width="0.666667" stroke-miterlimit="8" fill="none" fill-rule="evenodd"/><path d="M1.75686-2.43176 72.4493 48.6412 68.9356 53.5047-1.75686 2.43176ZM73.5313 42.0208 82.8512 59.8572 62.9901 56.6113Z" fill="#2F5597" transform="matrix(1 0 0 -1 524 404.857)"/><path d="M524.883 402.133 593.399 423.242 591.633 428.976 523.117 407.867ZM592.299 416.624 606.851 430.525 586.999 433.826Z" fill="#2F5597"/><path d="M2.70056-1.30652 33.8895 63.1606 28.4884 65.7737-2.70056 1.30652ZM37.9841 57.8471 37.7216 77.97 21.7808 65.6862Z" fill="#2F5597" transform="matrix(1 0 0 -1 525 403.97)"/><path d="M311.5 404.933 311.5 266.5" stroke="#000000" stroke-width="0.666667" stroke-miterlimit="8" fill="none" fill-rule="evenodd"/><path d="M0 0 114.804 83.8763" stroke="#000000" stroke-width="0.666667" stroke-miterlimit="8" fill="none" fill-rule="evenodd" transform="matrix(1 0 0 -1 313.5 404.376)"/><path d="M313.5 404.5 428.304 493.82" stroke="#000000" stroke-width="0.666667" stroke-miterlimit="8" fill="none" fill-rule="evenodd"/><path d="M1.77233-2.42051 71.4181 48.5751 67.8735 53.4161-1.77233 2.42051ZM72.5423 41.9617 81.7483 59.8572 61.9083 56.4848Z" fill="#2F5597" transform="matrix(1 0 0 -1 311 404.857)"/><path d="M313 400 378.278 400 378.278 406 313 406ZM375.278 394 393.278 403 375.278 412Z" fill="#2F5597"/><path d="M563.5 326.5 563.5 405.172" stroke="#000000" stroke-width="0.666667" stroke-miterlimit="8" fill="none" fill-rule="evenodd"/><path d="M524.5 404.5 563.098 405.471" stroke="#000000" stroke-width="0.666667" stroke-miterlimit="8" fill="none" fill-rule="evenodd"/><path d="M555.5 398.5 555.5 405.619" stroke="#000000" stroke-width="0.666667" stroke-miterlimit="8" fill="none" fill-rule="evenodd"/><path d="M555.5 398.5 563.1 398.5" stroke="#000000" stroke-width="0.666667" stroke-miterlimit="8" fill="none" fill-rule="evenodd"/><path d="M311.898 402.138 379.23 423.263 377.433 428.988 310.102 407.862ZM378.163 416.64 392.644 430.616 372.775 433.815Z" fill="#2F5597"/><path d="M755.5 404.933 755.5 266.5" stroke="#000000" stroke-width="0.666667" stroke-miterlimit="8" fill="none" fill-rule="evenodd"/><path d="M0 0 114.804 83.8763" stroke="#000000" stroke-width="0.666667" stroke-miterlimit="8" fill="none" fill-rule="evenodd" transform="matrix(1 0 0 -1 757.5 405.376)"/><path d="M1.74017-2.44372 73.4044 48.5883 69.924 53.4758-1.74017 2.44372ZM74.441 41.9607 83.8828 59.7329 64 56.623Z" fill="#2F5597" transform="matrix(1 0 0 -1 755 404.733)"/><path d="M3-3.8698e-06 3.00009 66.3894-2.99991 66.3894-3 3.8698e-06ZM9.00008 63.3894 0.000104987 81.3894-8.99992 63.3894Z" fill="#2F5597" transform="matrix(1 0 0 -1 755 404.389)"/><path d="M764.5 386.5 764.5 398.5" stroke="#000000" stroke-width="0.666667" stroke-miterlimit="8" fill="none" fill-rule="evenodd"/><path d="M0 0 9.52157 7" stroke="#000000" stroke-width="0.666667" stroke-miterlimit="8" fill="none" fill-rule="evenodd" transform="matrix(1 0 0 -1 755.5 393.5)"/><path d="M0 0 9.52157 7" stroke="#000000" stroke-width="0.666667" stroke-miterlimit="8" fill="none" fill-rule="evenodd" transform="matrix(1 0 0 -1 755.5 405.5)"/><path d="M755.5 393.5 755.5 405.5" stroke="#000000" stroke-width="0.666667" stroke-miterlimit="8" fill="none" fill-rule="evenodd"/><path d="M757.5 406.5 757.5 406.5" stroke="#000000" stroke-width="0.666667" stroke-miterlimit="8" fill="none" fill-rule="evenodd"/><path d="M0 0 9.52157 7" stroke="#000000" stroke-width="0.666667" stroke-miterlimit="8" fill="none" fill-rule="evenodd" transform="matrix(1 0 0 -1 764.5 412.5)"/><path d="M757.5 406.5 757.5 406.5" stroke="#000000" stroke-width="0.666667" stroke-miterlimit="8" fill="none" fill-rule="evenodd"/><path d="M764.5 398.5 773.428 405.5" stroke="#000000" stroke-width="0.666667" stroke-miterlimit="8" fill="none" fill-rule="evenodd"/><path d="M755.5 405.5 764.428 412.5" stroke="#000000" stroke-width="0.666667" stroke-miterlimit="8" fill="none" fill-rule="evenodd"/><text font-family="Cambria Math,Cambria Math_MSFontService,sans-serif" font-weight="400" font-size="24" transform="translate(434.898 322)">𝑥<tspan x="2.40524" y="180">𝑦</tspan><tspan x="-130.691" y="-68">𝑧</tspan><tspan x="212.828" y="0">𝑥</tspan><tspan x="215.234" y="180">𝑦</tspan><tspan x="82.1372" y="-68">𝑧</tspan><tspan x="442.033" y="0">𝑥</tspan><tspan x="444.439" y="180">𝑦</tspan><tspan x="311.342" y="-68">𝑧</tspan><tspan x="-35.5935" y="85">𝑣</tspan><tspan x="-84.4215" y="32">𝑢</tspan><tspan x="-38.3608" y="125">𝑤</tspan><tspan x="133.54" y="32">𝑢</tspan><tspan x="179.6" y="126">𝑤</tspan><tspan x="110.843" y="2">𝑣′</tspan><tspan x="324.752" y="3">𝑣′′</tspan><tspan x="361.756" y="31">𝑢</tspan><tspan x="383.976" y="171">𝑤′</tspan></text></g></svg>