<svg width="870" height="262" xmlns="http://www.w3.org/2000/svg" xmlns:xlink="http://www.w3.org/1999/xlink" overflow="hidden"><defs><clipPath id="clip0"><rect x="142" y="179" width="870" height="262"/></clipPath></defs><g clip-path="url(#clip0)" transform="translate(-142 -179)"><path d="M145 206.5C145 195.73 153.73 187 164.5 187 175.27 187 184 195.73 184 206.5 184 217.27 175.27 226 164.5 226 153.73 226 145 217.27 145 206.5Z" stroke="#000000" stroke-width="6" stroke-miterlimit="8" fill="#00B050" fill-rule="evenodd"/><path d="M160 398.5C160 387.73 168.73 379 179.5 379 190.27 379 199 387.73 199 398.5 199 409.27 190.27 418 179.5 418 168.73 418 160 409.27 160 398.5Z" stroke="#000000" stroke-width="6" stroke-miterlimit="8" fill="#4472C4" fill-rule="evenodd"/><path d="M253 418C253 407.507 261.507 399 272 399 282.493 399 291 407.507 291 418 291 428.493 282.493 437 272 437 261.507 437 253 428.493 253 418Z" stroke="#000000" stroke-width="6" stroke-miterlimit="8" fill="#4472C4" fill-rule="evenodd"/><path d="M310 313C310 302.507 318.507 294 329 294 339.493 294 348 302.507 348 313 348 323.493 339.493 332 329 332 318.507 332 310 323.493 310 313Z" stroke="#000000" stroke-width="6" stroke-miterlimit="8" fill="#FF0000" fill-rule="evenodd"/><path d="M310 213C310 202.507 318.507 194 329 194 339.493 194 348 202.507 348 213 348 223.493 339.493 232 329 232 318.507 232 310 223.493 310 213Z" stroke="#000000" stroke-width="6" stroke-miterlimit="8" fill="#00B050" fill-rule="evenodd"/><path d="M397 372.5C397 361.73 405.73 353 416.5 353 427.27 353 436 361.73 436 372.5 436 383.27 427.27 392 416.5 392 405.73 392 397 383.27 397 372.5Z" stroke="#000000" stroke-width="6" stroke-miterlimit="8" fill="#00B050" fill-rule="evenodd"/><path d="M589 234.5C589 223.73 597.507 215 608 215 618.493 215 627 223.73 627 234.5 627 245.27 618.493 254 608 254 597.507 254 589 245.27 589 234.5Z" stroke="#000000" stroke-width="6" stroke-miterlimit="8" fill="#00B050" fill-rule="evenodd"/><path d="M506 216C506 205.507 514.507 197 525 197 535.493 197 544 205.507 544 216 544 226.493 535.493 235 525 235 514.507 235 506 226.493 506 216Z" stroke="#000000" stroke-width="6" stroke-miterlimit="8" fill="#4472C4" fill-rule="evenodd"/><path d="M436 284.5C436 273.73 444.73 265 455.5 265 466.27 265 475 273.73 475 284.5 475 295.27 466.27 304 455.5 304 444.73 304 436 295.27 436 284.5Z" stroke="#000000" stroke-width="6" stroke-miterlimit="8" fill="#4472C4" fill-rule="evenodd"/><path d="M498 415.5C498 404.73 506.73 396 517.5 396 528.27 396 537 404.73 537 415.5 537 426.27 528.27 435 517.5 435 506.73 435 498 426.27 498 415.5Z" stroke="#000000" stroke-width="6" stroke-miterlimit="8" fill="#4472C4" fill-rule="evenodd"/><path d="M608 340.5C608 329.73 616.507 321 627 321 637.493 321 646 329.73 646 340.5 646 351.27 637.493 360 627 360 616.507 360 608 351.27 608 340.5Z" stroke="#000000" stroke-width="6" stroke-miterlimit="8" fill="#4472C4" fill-rule="evenodd"/><path d="M516 318.5C516 307.73 524.507 299 535 299 545.493 299 554 307.73 554 318.5 554 329.27 545.493 338 535 338 524.507 338 516 329.27 516 318.5Z" stroke="#000000" stroke-width="6" stroke-miterlimit="8" fill="#00B050" fill-rule="evenodd"/><path d="M575 415.5C575 404.73 583.507 396 594 396 604.493 396 613 404.73 613 415.5 613 426.27 604.493 435 594 435 583.507 435 575 426.27 575 415.5Z" stroke="#000000" stroke-width="6" stroke-miterlimit="8" fill="#4472C4" fill-rule="evenodd"/><path d="M165 226 179.812 379.567" stroke="#000000" stroke-width="6" stroke-miterlimit="8" fill="none" fill-rule="evenodd"/><path d="M252.43 417.652 193 412" stroke="#000000" stroke-width="6" stroke-miterlimit="8" fill="none" fill-rule="evenodd"/><path d="M0 0 43.9906 71.7968" stroke="#000000" stroke-width="6" stroke-miterlimit="8" fill="none" fill-rule="evenodd" transform="matrix(-1 -8.74228e-08 -8.74228e-08 1 328.991 332)"/><path d="M329 232 329 293.361" stroke="#000000" stroke-width="6" stroke-miterlimit="8" fill="none" fill-rule="evenodd"/><path d="M343 327 403.159 359" stroke="#000000" stroke-width="6" stroke-miterlimit="8" fill="none" fill-rule="evenodd"/><path d="M544 216 593.833 220.96" stroke="#000000" stroke-width="6" stroke-miterlimit="8" fill="none" fill-rule="evenodd"/><path d="M0 0 42.3198 40.9639" stroke="#000000" stroke-width="6" stroke-miterlimit="8" fill="none" fill-rule="evenodd" transform="matrix(-1 -8.74228e-08 -8.74228e-08 1 511.32 230)"/><path d="M504.213 402.353 456 304" stroke="#000000" stroke-width="6" stroke-miterlimit="8" fill="none" fill-rule="evenodd"/><path d="M0 0 38.0042 0.000104987" stroke="#000000" stroke-width="6" stroke-miterlimit="8" fill="none" fill-rule="evenodd" transform="matrix(1 0 0 -1 537 416)"/><path d="M0 0 19.5121 41.8585" stroke="#000000" stroke-width="6" stroke-miterlimit="8" fill="none" fill-rule="evenodd" transform="matrix(1 0 0 -1 607 401.858)"/><path d="M607.245 340.494 554 318" stroke="#000000" stroke-width="6" stroke-miterlimit="8" fill="none" fill-rule="evenodd"/><path d="M692 214.5C692 203.178 700.507 194 711 194 721.493 194 730 203.178 730 214.5 730 225.822 721.493 235 711 235 700.507 235 692 225.822 692 214.5Z" stroke="#000000" stroke-width="6" stroke-miterlimit="8" fill="#00B050" fill-rule="evenodd"/><path d="M692 412C692 401.507 700.507 393 711 393 721.493 393 730 401.507 730 412 730 422.493 721.493 431 711 431 700.507 431 692 422.493 692 412Z" stroke="#000000" stroke-width="6" stroke-miterlimit="8" fill="#4472C4" fill-rule="evenodd"/><path d="M808 391.5C808 380.73 816.507 372 827 372 837.493 372 846 380.73 846 391.5 846 402.27 837.493 411 827 411 816.507 411 808 402.27 808 391.5Z" stroke="#000000" stroke-width="6" stroke-miterlimit="8" fill="#00B050" fill-rule="evenodd"/><path d="M773 262.5C773 251.73 781.73 243 792.5 243 803.27 243 812 251.73 812 262.5 812 273.27 803.27 282 792.5 282 781.73 282 773 273.27 773 262.5Z" stroke="#000000" stroke-width="6" stroke-miterlimit="8" fill="#00B050" fill-rule="evenodd"/><path d="M882 323.5C882 312.73 890.73 304 901.5 304 912.27 304 921 312.73 921 323.5 921 334.27 912.27 343 901.5 343 890.73 343 882 334.27 882 323.5Z" stroke="#000000" stroke-width="6" stroke-miterlimit="8" fill="#FF0000" fill-rule="evenodd"/><path d="M970 201.5C970 190.73 978.507 182 989 182 999.493 182 1008 190.73 1008 201.5 1008 212.27 999.493 221 989 221 978.507 221 970 212.27 970 201.5Z" stroke="#000000" stroke-width="6" stroke-miterlimit="8" fill="#00B050" fill-rule="evenodd"/><path d="M887 411C887 400.507 895.73 392 906.5 392 917.27 392 926 400.507 926 411 926 421.493 917.27 430 906.5 430 895.73 430 887 421.493 887 411Z" stroke="#000000" stroke-width="6" stroke-miterlimit="8" fill="#00B050" fill-rule="evenodd"/><path d="M711 235 711 392.977" stroke="#000000" stroke-width="6" stroke-miterlimit="8" fill="none" fill-rule="evenodd"/><path d="M0 0 77.7567 20.498" stroke="#000000" stroke-width="6" stroke-miterlimit="8" fill="none" fill-rule="evenodd" transform="matrix(-1 -8.74228e-08 -8.74228e-08 1 807.757 392)"/><path d="M887.703 309.735 806 276" stroke="#000000" stroke-width="6" stroke-miterlimit="8" fill="none" fill-rule="evenodd"/><path d="M0 0 60.5591 94.763" stroke="#000000" stroke-width="6" stroke-miterlimit="8" fill="none" fill-rule="evenodd" transform="matrix(1 0 0 -1 915 309.763)"/><path d="M901 343 905.887 391.698" stroke="#000000" stroke-width="6" stroke-miterlimit="8" fill="none" fill-rule="evenodd"/></g></svg>