<svg width="1058" height="317" xmlns="http://www.w3.org/2000/svg" xmlns:xlink="http://www.w3.org/1999/xlink" overflow="hidden"><defs><clipPath id="clip0"><rect x="111" y="150" width="1058" height="317"/></clipPath></defs><g clip-path="url(#clip0)" transform="translate(-111 -150)"><path d="M866.945 437.76 885.754 433.905 889.608 452.715 870.799 456.569Z" fill="#C00000" fill-rule="evenodd"/><path d="M490.095 444.901 504.826 432.586 517.141 447.316 502.41 459.631Z" fill="#4472C4" fill-rule="evenodd"/><path d="M1.5-5.46807e-07 1.5001 280.5-1.4999 280.5-1.5 5.46807e-07ZM4.5001 279 0.000104987 288-4.4999 279Z" transform="matrix(1 0 0 -1 121.5 457.5)"/><path d="M5.46807e-07-1.5 280.5-1.4999 280.5 1.5001-5.46807e-07 1.5ZM279-4.4999 288 0.000104987 279 4.5001Z" transform="matrix(1 0 0 -1 121.5 457.5)"/><path d="M1.44451-0.4042 4.67811 11.1519 1.78908 11.9603-1.44451 0.4042ZM7.10331 19.819 10.3369 31.3751 7.44788 32.1835 4.21428 20.6274ZM12.7621 40.0422 15.9957 51.5983 13.1067 52.4067 9.87307 40.8506ZM18.4209 60.2654 21.6545 71.8215 18.7655 72.6299 15.5319 61.0738ZM24.0797 80.4886 27.3133 92.0447 24.4243 92.8531 21.1907 81.297ZM29.7385 100.712 32.9721 112.268 30.083 113.076 26.8495 101.52ZM35.3973 120.935 38.6309 132.491 35.7418 133.3 32.5082 121.743ZM41.0561 141.158 44.2897 152.714 41.4006 153.523 38.167 141.967ZM46.7149 161.381 49.9485 172.938 47.0594 173.746 43.8258 162.19ZM52.3737 181.605 55.6073 193.161 52.7182 193.969 49.4846 182.413ZM58.0325 201.828 59.7948 208.126 56.9058 208.934 55.1434 202.636ZM62.2796 205.873 60.3712 215.753 53.6125 208.298Z" transform="matrix(1 0 0 -1 121.5 458.253)"/><path d="M0.910187-1.19229 10.4485 6.0892 8.62815 8.47379-0.910187 1.19229ZM17.6023 11.5503 27.1406 18.8318 25.3202 21.2164 15.7819 13.9349ZM34.2944 24.2929 43.8327 31.5744 42.0123 33.959 32.474 26.6775ZM50.9864 37.0356 60.5248 44.3171 58.7044 46.7016 49.1661 39.4201ZM67.6785 49.7782 77.2169 57.0597 75.3965 59.4442 65.8581 52.1628ZM84.3706 62.5208 93.9089 69.8023 92.0886 72.1869 82.5502 64.9054ZM101.063 75.2634 110.601 82.5449 108.781 84.9295 99.2423 77.648ZM117.755 88.006 127.293 95.2875 125.473 97.6721 115.934 90.3906ZM134.447 100.749 143.985 108.03 142.165 110.415 132.626 103.133ZM151.139 113.491 160.677 120.773 158.857 123.157 149.319 115.876ZM161.845 117.89 166.268 126.928 156.384 125.044Z" transform="matrix(1 0 0 -1 121.5 457.428)"/><path d="M1.5-5.46807e-07 1.5001 280.5-1.4999 280.5-1.5 5.46807e-07ZM4.5001 279 0.000104987 288-4.4999 279Z" transform="matrix(1 0 0 -1 503.5 456.5)"/><path d="M5.46807e-07-1.5 280.5-1.4999 280.5 1.5001-5.46807e-07 1.5ZM279-4.4999 288 0.000104987 279 4.5001Z" transform="matrix(1 0 0 -1 503.5 456.5)"/><path d="M1.44451-0.4042 4.67811 11.1519 1.78908 11.9603-1.44451 0.4042ZM7.10331 19.819 10.3369 31.3751 7.44788 32.1835 4.21428 20.6274ZM12.7621 40.0422 15.9957 51.5983 13.1067 52.4067 9.87307 40.8506ZM18.4209 60.2654 21.6545 71.8215 18.7655 72.6299 15.5319 61.0738ZM24.0797 80.4886 27.3133 92.0447 24.4243 92.8531 21.1907 81.297ZM29.7385 100.712 32.9721 112.268 30.083 113.076 26.8495 101.52ZM35.3973 120.935 38.6309 132.491 35.7418 133.3 32.5082 121.743ZM41.0561 141.158 44.2897 152.714 41.4006 153.523 38.167 141.967ZM46.7149 161.381 49.9485 172.938 47.0594 173.746 43.8258 162.19ZM52.3737 181.605 55.6073 193.161 52.7182 193.969 49.4846 182.413ZM58.0325 201.828 59.7948 208.126 56.9058 208.934 55.1434 202.636ZM62.2796 205.873 60.3712 215.753 53.6125 208.298Z" transform="matrix(1 0 0 -1 504.5 457.253)"/><path d="M0.910187-1.19229 10.4485 6.0892 8.62815 8.47379-0.910187 1.19229ZM17.6023 11.5503 27.1406 18.8318 25.3202 21.2164 15.7819 13.9349ZM34.2944 24.2929 43.8327 31.5744 42.0123 33.959 32.474 26.6775ZM50.9864 37.0356 60.5248 44.3171 58.7044 46.7016 49.1661 39.4201ZM67.6785 49.7782 77.2169 57.0597 75.3965 59.4442 65.8581 52.1628ZM84.3706 62.5208 93.9089 69.8023 92.0886 72.1869 82.5502 64.9054ZM101.063 75.2634 110.601 82.5449 108.781 84.9295 99.2423 77.648ZM117.755 88.006 127.293 95.2875 125.473 97.6721 115.934 90.3906ZM134.447 100.749 143.985 108.03 142.165 110.415 132.626 103.133ZM151.139 113.491 160.677 120.773 158.857 123.157 149.319 115.876ZM161.845 117.89 166.268 126.928 156.384 125.044Z" transform="matrix(1 0 0 -1 503.5 457.428)"/><path d="M502.32 459.556 494.7 450.286 497.017 448.381 504.638 457.65ZM488.984 443.334 481.364 434.064 483.681 432.159 491.302 441.429ZM475.648 427.112 468.027 417.842 470.345 415.937 477.965 425.207ZM462.312 410.89 454.691 401.621 457.009 399.715 464.629 408.985ZM448.976 394.668 441.355 385.399 443.672 383.494 451.293 392.763ZM435.639 378.447 428.019 369.177 430.336 367.272 437.957 376.542ZM422.303 362.225 414.683 352.955 417 351.05 424.621 360.32ZM408.967 346.003 401.346 336.734 403.664 334.828 411.284 344.098ZM395.631 329.781 388.01 320.512 390.328 318.607 397.948 327.876ZM382.295 313.56 377.104 307.246 379.422 305.341 384.612 311.654ZM375.739 310.31 373.5 300.5 382.692 304.594Z" fill="#0070C0"/><path d="M1.5-5.46807e-07 1.5001 280.5-1.4999 280.5-1.5 5.46807e-07ZM4.5001 279 0.000104987 288-4.4999 279Z" transform="matrix(1 0 0 -1 871.5 456.5)"/><path d="M5.46807e-07-1.5 280.5-1.4999 280.5 1.5001-5.46807e-07 1.5ZM279-4.4999 288 0.000104987 279 4.5001Z" transform="matrix(1 0 0 -1 871.5 456.5)"/><path d="M1.44451-0.4042 4.67811 11.1519 1.78908 11.9603-1.44451 0.4042ZM7.10331 19.819 10.3369 31.3751 7.44788 32.1835 4.21428 20.6274ZM12.7621 40.0422 15.9957 51.5983 13.1067 52.4067 9.87307 40.8506ZM18.4209 60.2654 21.6545 71.8215 18.7655 72.6299 15.5319 61.0738ZM24.0797 80.4886 27.3133 92.0447 24.4243 92.8531 21.1907 81.297ZM29.7385 100.712 32.9721 112.268 30.083 113.076 26.8495 101.52ZM35.3973 120.935 38.6309 132.491 35.7418 133.3 32.5082 121.743ZM41.0561 141.158 44.2897 152.714 41.4006 153.523 38.167 141.967ZM46.7149 161.381 49.9485 172.938 47.0594 173.746 43.8258 162.19ZM52.3737 181.605 55.6073 193.161 52.7182 193.969 49.4846 182.413ZM58.0325 201.828 59.7948 208.126 56.9058 208.934 55.1434 202.636ZM62.2796 205.873 60.3712 215.753 53.6125 208.298Z" transform="matrix(1 0 0 -1 871.5 457.253)"/><path d="M0.910187-1.19229 10.4485 6.0892 8.62815 8.47379-0.910187 1.19229ZM17.6023 11.5503 27.1406 18.8318 25.3202 21.2164 15.7819 13.9349ZM34.2944 24.2929 43.8327 31.5744 42.0123 33.959 32.474 26.6775ZM50.9864 37.0356 60.5248 44.3171 58.7044 46.7016 49.1661 39.4201ZM67.6785 49.7782 77.2169 57.0597 75.3965 59.4442 65.8581 52.1628ZM84.3706 62.5208 93.9089 69.8023 92.0886 72.1869 82.5502 64.9054ZM101.063 75.2634 110.601 82.5449 108.781 84.9295 99.2423 77.648ZM117.755 88.006 127.293 95.2875 125.473 97.6721 115.934 90.3906ZM134.447 100.749 143.985 108.03 142.165 110.415 132.626 103.133ZM151.139 113.491 160.677 120.773 158.857 123.157 149.319 115.876ZM161.845 117.89 166.268 126.928 156.384 125.044Z" transform="matrix(1 0 0 -1 871.5 456.428)"/><path d="M869.822 453.351 867.39 441.6 870.328 440.992 872.76 452.742ZM865.566 432.787 863.133 421.036 866.071 420.428 868.503 432.178ZM861.309 412.223 858.876 400.472 861.814 399.864 864.246 411.614ZM857.052 391.659 854.619 379.908 857.557 379.299 859.99 391.05ZM852.795 371.094 850.362 359.344 853.3 358.735 855.733 370.486ZM848.538 350.53 846.106 338.78 849.043 338.171 851.476 349.922ZM844.281 329.966 841.849 318.216 844.786 317.607 847.219 329.358ZM840.024 309.402 837.592 297.652 840.53 297.043 842.962 308.794ZM835.768 288.838 833.335 277.087 836.273 276.479 838.705 288.23ZM831.511 268.274 829.078 256.523 832.016 255.915 834.448 267.666ZM824.918 251.225 827.5 241.5 833.731 249.401Z" fill="#C00000"/><path d="M0.330711-1.46309 12.0354 1.18259 11.374 4.10877-0.330711 1.46309ZM20.814 3.16686 32.5187 5.81254 31.8573 8.73872 20.1525 6.09304ZM41.2972 7.7968 53.0019 10.4425 52.3405 13.3687 40.6358 10.723ZM61.7805 12.4268 73.4852 15.0724 72.8238 17.9986 61.119 15.3529ZM82.2637 17.0567 93.9684 19.7024 93.307 22.6286 81.6023 19.9829ZM102.747 21.6866 114.452 24.3323 113.79 27.2585 102.086 24.6128ZM123.23 26.3166 134.935 28.9623 134.273 31.8885 122.569 29.2428ZM143.713 30.9465 155.418 33.5922 154.757 36.5184 143.052 33.8727ZM164.197 35.5765 175.901 38.2222 175.24 41.1484 163.535 38.5027ZM177.204 35.4409 184.99 41.8144 175.219 44.2194Z" fill="#C00000" transform="matrix(1 0 0 -1 871.5 456.314)"/><text font-family="Calibri,Calibri_MSFontService,sans-serif" font-weight="400" font-size="24" transform="translate(543.373 195)">Gram<tspan x="53.6733" y="0">-</tspan><tspan x="61.0067" y="0">Schmidt</tspan><tspan x="387.088" y="-15">Symmetric </tspan><tspan x="387.088" y="14">Orthogonalization</tspan></text></g></svg>